{"asset":{"version":"2.0","generator":"Unity 6000.3.9f1 glTFast 6.17.0"},"nodes":[{"name":"Directional Light","children":[63],"translation":[39.45368,0,-17.09425],"rotation":[0.408217877,0.234569684,-0.109381631,0.8754261]},{"name":"Global Volume","translation":[39.45368,0,-17.09425]},{"name":"Skybox.001_Material.002_0","mesh":0},{"name":"Skybox.001_Material.001_0","mesh":1},{"name":"Skybox.001_moosstock_Model_8_u1_v1_0","mesh":2},{"name":"Skybox.001_moosstock_Model_8_u1_v1_0_0","mesh":3},{"name":"Skybox.001_moosstock_Model_8_u1_v1_0_1","mesh":4},{"name":"Skybox.001_moosstock_Model_8_u1_v1_0_2","mesh":5},{"name":"Skybox.001_moosstock_Model_8_u1_v1_0_3","mesh":6},{"name":"Skybox.001_moosstock_Model_8_u1_v1_0_4","mesh":7},{"name":"Skybox.001_moosstock_Model_8_u1_v1_0_5","mesh":8},{"name":"Skybox.001_moosstock_Model_8_u1_v1_0_6","mesh":9},{"name":"Skybox.001_moosstock_Model_8_u1_v1_0_7","mesh":10},{"name":"Skybox.001_moosstock_Model_8_u1_v1_0_8","mesh":11},{"name":"Skybox.001_moosstock_Model_8_u1_v1_0_9","mesh":12},{"name":"Skybox.001_moosstock_Model_8_u1_v1_0_10","mesh":13},{"name":"Skybox.001_moosstock_Model_8_u1_v1_0_11","mesh":14},{"name":"Skybox.001_moosstock_Model_8_u1_v1_0_12","mesh":15},{"name":"Skybox.001_moosstock_Model_8_u1_v1_0_13","mesh":16},{"name":"Skybox.001_moosstock_Model_8_u1_v1_0_14","mesh":17},{"name":"Skybox.001_moosstock_Model_8_u1_v1_0_15","mesh":18},{"name":"Skybox.001_moosstock_Model_8_u1_v1_0_16","mesh":19},{"name":"Skybox.001_moosstock_Model_8_u1_v1_0_17","mesh":20},{"name":"Skybox.001_moosstock_Model_8_u1_v1_0_18","mesh":21},{"name":"Skybox.001_moosstock_Model_8_u1_v1_0_19","mesh":22},{"name":"Skybox.001","children":[2,3,4,5,6,7,8,9,10,11,12,13,14,15,16,17,18,19,20,21,22,23,24],"rotation":[0.7071068,0,0,-0.707106769],"scale":[100,100,100]},{"name":"RootNode","children":[25]},{"name":"75267741cbfd4b8b9cf56d51ed3cb7c6.fbx","children":[26],"rotation":[0.7071068,0,0,0.7071068],"scale":[0.01,0.01,0.01]},{"name":"moosstock_mountain_peak_3024_m","children":[27],"translation":[39.45368,0,-17.09425],"rotation":[0.707106769,0,0,-0.7071067],"scale":[1,1.00000012,1.00000012]},{"name":"LeftEyeAnchor"},{"name":"model","mesh":23,"translation":[-0.4,0,1],"rotation":[0,-0.7071068,0,0.7071068],"scale":[0.2,0.2,0.2]},{"name":"Object_4","mesh":24},{"name":"Object_5","mesh":25},{"name":"Object_6","mesh":26},{"name":"_0","children":[31,32,33]},{"name":"GLTF_SceneRootNode","children":[34],"rotation":[0.7071068,0,0,0.7071068]},{"name":"root","children":[35]},{"name":"susie_pretty_in_skyward_stretch","children":[36],"translation":[-0.4,0,1],"rotation":[0,0.7071068,0.7071068,0],"scale":[0.2,0.2,0.2]},{"name":"CenterEyeAnchor","children":[64,30,37]},{"name":"RightEyeAnchor"},{"name":"TrackerAnchor"},{"name":"LeftControllerAnchor"},{"name":"LeftHandOnControllerAnchor"},{"name":"LeftControllerInHandAnchor","children":[42]},{"name":"LeftHandAnchor","children":[41,43]},{"name":"RightControllerAnchor"},{"name":"RightHandOnControllerAnchor"},{"name":"RightControllerInHandAnchor","children":[46]},{"name":"RightHandAnchor","children":[45,47]},{"name":"LeftHandAnchorDetached"},{"name":"RightHandAnchorDetached"},{"name":"TrackingSpace","children":[29,38,39,40,44,48,49,50]},{"name":"[BuildingBlock] Camera Rig","children":[51],"translation":[51.86,74.3,-24.2],"rotation":[0,-1,0,0]},{"name":"AppController","translation":[317.474579,0,14.62565]},{"name":"controllers down prompt","translation":[0,0.2,0]},{"name":"UI Feedback"},{"name":"Pick up Prompt"},{"name":"End Prompt"},{"name":"Start Text"},{"name":"Image","translation":[0,0.75,0.100000381],"scale":[0.03,0.01,1]},{"name":"Canvas","children":[54,55,56,57,58,59],"translation":[51.86,74.5,-26.486],"rotation":[0,-1,0,0]},{"name":"EventSystem"},{"name":"Passthrough","translation":[211.524155,0,-117.42823]},{"name":"Directional Light_Orientation","rotation":[0,-1,0,-4.371139E-08],"extensions":{"KHR_lights_punctual":{"light":0}}},{"name":"CenterEyeAnchor_Orientation","rotation":[0,-1,0,-4.371139E-08],"camera":0}],"extensionsRequired":["KHR_materials_unlit","KHR_lights_punctual"],"extensionsUsed":["KHR_materials_unlit","KHR_lights_punctual"],"buffers":[{"uri":"SampleScene.bin","byteLength":53957484}],"bufferViews":[{"buffer":0,"byteLength":24504,"target":34963},{"buffer":0,"byteLength":27696,"byteOffset":24504,"target":34963},{"buffer":0,"byteLength":262128,"byteOffset":52200,"target":34963},{"buffer":0,"byteLength":262128,"byteOffset":314328,"target":34963},{"buffer":0,"byteLength":262128,"byteOffset":576456,"target":34963},{"buffer":0,"byteLength":262128,"byteOffset":838584,"target":34963},{"buffer":0,"byteLength":262128,"byteOffset":1100712,"target":34963},{"buffer":0,"byteLength":262128,"byteOffset":1362840,"target":34963},{"buffer":0,"byteLength":262128,"byteOffset":1624968,"target":34963},{"buffer":0,"byteLength":262128,"byteOffset":1887096,"target":34963},{"buffer":0,"byteLength":262128,"byteOffset":2149224,"target":34963},{"buffer":0,"byteLength":262128,"byteOffset":2411352,"target":34963},{"buffer":0,"byteLength":262128,"byteOffset":2673480,"target":34963},{"buffer":0,"byteLength":262128,"byteOffset":2935608,"target":34963},{"buffer":0,"byteLength":262128,"byteOffset":3197736,"target":34963},{"buffer":0,"byteLength":262128,"byteOffset":3459864,"target":34963},{"buffer":0,"byteLength":262128,"byteOffset":3721992,"target":34963},{"buffer":0,"byteLength":262128,"byteOffset":3984120,"target":34963},{"buffer":0,"byteLength":262128,"byteOffset":4246248,"target":34963},{"buffer":0,"byteLength":262128,"byteOffset":4508376,"target":34963},{"buffer":0,"byteLength":262128,"byteOffset":4770504,"target":34963},{"buffer":0,"byteLength":262128,"byteOffset":5032632,"target":34963},{"buffer":0,"byteLength":173280,"byteOffset":5294760,"target":34963},{"buffer":0,"byteLength":3136128,"byteOffset":5468040,"target":34963},{"buffer":0,"byteLength":1345116,"byteOffset":8604168,"target":34963},{"buffer":0,"byteLength":1311528,"byteOffset":9949284,"target":34963},{"buffer":0,"byteLength":197316,"byteOffset":11260812,"target":34963},{"buffer":0,"byteLength":13068,"byteOffset":11458128,"byteStride":12,"target":34962},{"buffer":0,"byteLength":8712,"byteOffset":11471196,"byteStride":8,"target":34962},{"buffer":0,"byteLength":82656,"byteOffset":11479908,"byteStride":12,"target":34962},{"buffer":0,"byteLength":55104,"byteOffset":11562564,"byteStride":8,"target":34962},{"buffer":0,"byteLength":786384,"byteOffset":11617668,"byteStride":12,"target":34962},{"buffer":0,"byteLength":524256,"byteOffset":12404052,"byteStride":8,"target":34962},{"buffer":0,"byteLength":786384,"byteOffset":12928308,"byteStride":12,"target":34962},{"buffer":0,"byteLength":524256,"byteOffset":13714692,"byteStride":8,"target":34962},{"buffer":0,"byteLength":786384,"byteOffset":14238948,"byteStride":12,"target":34962},{"buffer":0,"byteLength":524256,"byteOffset":15025332,"byteStride":8,"target":34962},{"buffer":0,"byteLength":786384,"byteOffset":15549588,"byteStride":12,"target":34962},{"buffer":0,"byteLength":524256,"byteOffset":16335972,"byteStride":8,"target":34962},{"buffer":0,"byteLength":786384,"byteOffset":16860228,"byteStride":12,"target":34962},{"buffer":0,"byteLength":524256,"byteOffset":17646612,"byteStride":8,"target":34962},{"buffer":0,"byteLength":786384,"byteOffset":18170868,"byteStride":12,"target":34962},{"buffer":0,"byteLength":524256,"byteOffset":18957252,"byteStride":8,"target":34962},{"buffer":0,"byteLength":786384,"byteOffset":19481508,"byteStride":12,"target":34962},{"buffer":0,"byteLength":524256,"byteOffset":20267892,"byteStride":8,"target":34962},{"buffer":0,"byteLength":786384,"byteOffset":20792148,"byteStride":12,"target":34962},{"buffer":0,"byteLength":524256,"byteOffset":21578532,"byteStride":8,"target":34962},{"buffer":0,"byteLength":786384,"byteOffset":22102788,"byteStride":12,"target":34962},{"buffer":0,"byteLength":524256,"byteOffset":22889172,"byteStride":8,"target":34962},{"buffer":0,"byteLength":786384,"byteOffset":23413428,"byteStride":12,"target":34962},{"buffer":0,"byteLength":524256,"byteOffset":24199812,"byteStride":8,"target":34962},{"buffer":0,"byteLength":786384,"byteOffset":24724068,"byteStride":12,"target":34962},{"buffer":0,"byteLength":524256,"byteOffset":25510452,"byteStride":8,"target":34962},{"buffer":0,"byteLength":786384,"byteOffset":26034708,"byteStride":12,"target":34962},{"buffer":0,"byteLength":524256,"byteOffset":26821092,"byteStride":8,"target":34962},{"buffer":0,"byteLength":786384,"byteOffset":27345348,"byteStride":12,"target":34962},{"buffer":0,"byteLength":524256,"byteOffset":28131732,"byteStride":8,"target":34962},{"buffer":0,"byteLength":786384,"byteOffset":28655988,"byteStride":12,"target":34962},{"buffer":0,"byteLength":524256,"byteOffset":29442372,"byteStride":8,"target":34962},{"buffer":0,"byteLength":786384,"byteOffset":29966628,"byteStride":12,"target":34962},{"buffer":0,"byteLength":524256,"byteOffset":30753012,"byteStride":8,"target":34962},{"buffer":0,"byteLength":786384,"byteOffset":31277268,"byteStride":12,"target":34962},{"buffer":0,"byteLength":524256,"byteOffset":32063652,"byteStride":8,"target":34962},{"buffer":0,"byteLength":786384,"byteOffset":32587908,"byteStride":12,"target":34962},{"buffer":0,"byteLength":524256,"byteOffset":33374292,"byteStride":8,"target":34962},{"buffer":0,"byteLength":786384,"byteOffset":33898548,"byteStride":12,"target":34962},{"buffer":0,"byteLength":524256,"byteOffset":34684932,"byteStride":8,"target":34962},{"buffer":0,"byteLength":786384,"byteOffset":35209188,"byteStride":12,"target":34962},{"buffer":0,"byteLength":524256,"byteOffset":35995572,"byteStride":8,"target":34962},{"buffer":0,"byteLength":786384,"byteOffset":36519828,"byteStride":12,"target":34962},{"buffer":0,"byteLength":524256,"byteOffset":37306212,"byteStride":8,"target":34962},{"buffer":0,"byteLength":519840,"byteOffset":37830468,"byteStride":12,"target":34962},{"buffer":0,"byteLength":346560,"byteOffset":38350308,"byteStride":8,"target":34962},{"buffer":0,"byteLength":6083280,"byteOffset":38696868,"byteStride":40,"target":34962},{"buffer":0,"byteLength":1216656,"byteOffset":44780148,"byteStride":8,"target":34962},{"buffer":0,"byteLength":2621280,"byteOffset":45996804,"byteStride":40,"target":34962},{"buffer":0,"byteLength":1048512,"byteOffset":48618084,"byteStride":16,"target":34962},{"buffer":0,"byteLength":2621280,"byteOffset":49666596,"byteStride":40,"target":34962},{"buffer":0,"byteLength":1048512,"byteOffset":52287876,"byteStride":16,"target":34962},{"buffer":0,"byteLength":443640,"byteOffset":53336388,"byteStride":40,"target":34962},{"buffer":0,"byteLength":177456,"byteOffset":53780028,"byteStride":16,"target":34962}],"accessors":[{"bufferView":27,"componentType":5126,"count":1089,"type":"VEC3","max":[450.256134,450.256226,515.698],"min":[-450.256073,-450.256226,-387.598755]},{"bufferView":28,"componentType":5126,"count":1089,"type":"VEC2"},{"bufferView":0,"componentType":5125,"count":6126,"type":"SCALAR"},{"bufferView":29,"componentType":5126,"count":6888,"type":"VEC3","max":[16.3093586,2.1978178,77.52217],"min":[10.0688438,-15.7865915,72.57399]},{"bufferView":30,"componentType":5126,"count":6888,"type":"VEC2"},{"bufferView":1,"componentType":5125,"count":6924,"type":"SCALAR"},{"bufferView":31,"componentType":5126,"count":65532,"type":"VEC3","max":[115.163956,139.6354,72.60503],"min":[-126.991058,-155.264954,-65.36095]},{"bufferView":32,"componentType":5126,"count":65532,"type":"VEC2"},{"bufferView":2,"componentType":5125,"count":65532,"type":"SCALAR"},{"bufferView":33,"componentType":5126,"count":65532,"type":"VEC3","max":[47.6485634,116.435196,21.521553],"min":[-111.653915,-153.780838,-38.5499878]},{"bufferView":34,"componentType":5126,"count":65532,"type":"VEC2"},{"bufferView":3,"componentType":5125,"count":65532,"type":"SCALAR"},{"bufferView":35,"componentType":5126,"count":65532,"type":"VEC3","max":[74.31973,115.718933,38.5740356],"min":[-121.745743,-155.2717,-51.49817]},{"bufferView":36,"componentType":5126,"count":65532,"type":"VEC2"},{"bufferView":4,"componentType":5125,"count":65532,"type":"SCALAR"},{"bufferView":37,"componentType":5126,"count":65532,"type":"VEC3","max":[74.39967,18.9375916,38.5403],"min":[-126.321854,-101.876434,-65.04581]},{"bufferView":38,"componentType":5126,"count":65532,"type":"VEC2"},{"bufferView":5,"componentType":5125,"count":65532,"type":"SCALAR"},{"bufferView":39,"componentType":5126,"count":65532,"type":"VEC3","max":[74.18698,18.81591,38.5819855],"min":[-126.990952,-104.191307,-65.35353]},{"bufferView":40,"componentType":5126,"count":65532,"type":"VEC2"},{"bufferView":6,"componentType":5125,"count":65532,"type":"SCALAR"},{"bufferView":41,"componentType":5126,"count":65532,"type":"VEC3","max":[74.5151138,18.31491,38.2797623],"min":[-91.84243,-103.132431,-14.0015717]},{"bufferView":42,"componentType":5126,"count":65532,"type":"VEC2"},{"bufferView":7,"componentType":5125,"count":65532,"type":"SCALAR"},{"bufferView":43,"componentType":5126,"count":65532,"type":"VEC3","max":[7.2878,18.3684845,62.7973862],"min":[-91.95268,-102.050583,-8.614235]},{"bufferView":44,"componentType":5126,"count":65532,"type":"VEC2"},{"bufferView":8,"componentType":5125,"count":65532,"type":"SCALAR"},{"bufferView":45,"componentType":5126,"count":65532,"type":"VEC3","max":[7.743557,-15.2185593,52.16323],"min":[-53.1682,-101.965904,-0.7399292]},{"bufferView":46,"componentType":5126,"count":65532,"type":"VEC2"},{"bufferView":9,"componentType":5125,"count":65532,"type":"SCALAR"},{"bufferView":47,"componentType":5126,"count":65532,"type":"VEC3","max":[41.08081,71.41778,61.98396],"min":[-53.17325,-45.3530655,10.941082]},{"bufferView":48,"componentType":5126,"count":65532,"type":"VEC2"},{"bufferView":10,"componentType":5125,"count":65532,"type":"SCALAR"},{"bufferView":49,"componentType":5126,"count":65532,"type":"VEC3","max":[114.845406,124.3954,62.2678757],"min":[4.04393768,-70.29826,-49.6340866]},{"bufferView":50,"componentType":5126,"count":65532,"type":"VEC2"},{"bufferView":11,"componentType":5125,"count":65532,"type":"SCALAR"},{"bufferView":51,"componentType":5126,"count":65532,"type":"VEC3","max":[115.107704,125.565605,66.5415],"min":[6.234375,-63.9718552,-49.94197]},{"bufferView":52,"componentType":5126,"count":65532,"type":"VEC2"},{"bufferView":12,"componentType":5125,"count":65532,"type":"SCALAR"},{"bufferView":53,"componentType":5126,"count":65532,"type":"VEC3","max":[43.44346,18.593792,66.550415],"min":[6.26826859,-38.9822578,37.3719177]},{"bufferView":54,"componentType":5126,"count":65532,"type":"VEC2"},{"bufferView":13,"componentType":5125,"count":65532,"type":"SCALAR"},{"bufferView":55,"componentType":5126,"count":65532,"type":"VEC3","max":[98.19243,18.5590248,73.40382],"min":[6.30911255,-32.55772,-39.52134]},{"bufferView":56,"componentType":5126,"count":65532,"type":"VEC2"},{"bufferView":14,"componentType":5125,"count":65532,"type":"SCALAR"},{"bufferView":57,"componentType":5126,"count":65532,"type":"VEC3","max":[43.4873238,18.8086128,73.3524246],"min":[6.30911636,-32.81098,37.50361]},{"bufferView":58,"componentType":5126,"count":65532,"type":"VEC2"},{"bufferView":15,"componentType":5125,"count":65532,"type":"SCALAR"},{"bufferView":59,"componentType":5126,"count":65532,"type":"VEC3","max":[43.35333,70.90823,66.5517654],"min":[4.284355,-38.293972,37.4913254]},{"bufferView":60,"componentType":5126,"count":65532,"type":"VEC2"},{"bufferView":16,"componentType":5125,"count":65532,"type":"SCALAR"},{"bufferView":61,"componentType":5126,"count":65532,"type":"VEC3","max":[69.68496,116.194092,62.0034676],"min":[4.11830139,17.6045113,20.202]},{"bufferView":62,"componentType":5126,"count":65532,"type":"VEC2"},{"bufferView":17,"componentType":5125,"count":65532,"type":"SCALAR"},{"bufferView":63,"componentType":5126,"count":65532,"type":"VEC3","max":[69.68496,115.968948,66.2474442],"min":[4.41326141,17.4164734,19.8869858]},{"bufferView":64,"componentType":5126,"count":65532,"type":"VEC2"},{"bufferView":18,"componentType":5125,"count":65532,"type":"SCALAR"},{"bufferView":65,"componentType":5126,"count":65532,"type":"VEC3","max":[30.9827423,81.9589,69.32415],"min":[-52.62478,17.5775986,20.154932]},{"bufferView":66,"componentType":5126,"count":65532,"type":"VEC2"},{"bufferView":19,"componentType":5125,"count":65532,"type":"SCALAR"},{"bufferView":67,"componentType":5126,"count":65532,"type":"VEC3","max":[7.408348,82.16809,71.9063],"min":[-52.658287,-45.1747475,19.9608765]},{"bufferView":68,"componentType":5126,"count":65532,"type":"VEC2"},{"bufferView":20,"componentType":5125,"count":65532,"type":"SCALAR"},{"bufferView":69,"componentType":5126,"count":65532,"type":"VEC3","max":[7.21773338,18.4445763,72.7179642],"min":[-35.9305954,-45.0652771,50.77665]},{"bufferView":70,"componentType":5126,"count":65532,"type":"VEC2"},{"bufferView":21,"componentType":5125,"count":65532,"type":"SCALAR"},{"bufferView":71,"componentType":5126,"count":43320,"type":"VEC3","max":[6.979248,18.4445782,72.41296],"min":[-53.0123138,-17.13894,10.94108]},{"bufferView":72,"componentType":5126,"count":43320,"type":"VEC2"},{"bufferView":22,"componentType":5125,"count":43320,"type":"SCALAR"},{"bufferView":73,"componentType":5126,"count":152082,"type":"VEC3","max":[0.359534,0.67776,0.948438],"min":[-0.361581,-0.681684,-0.950483]},{"bufferView":73,"componentType":5126,"count":152082,"type":"VEC3","byteOffset":12},{"bufferView":73,"componentType":5126,"count":152082,"type":"VEC4","byteOffset":24},{"bufferView":74,"componentType":5126,"count":152082,"type":"VEC2"},{"bufferView":23,"componentType":5125,"count":784032,"type":"SCALAR"},{"bufferView":75,"componentType":5126,"count":65532,"type":"VEC3","max":[0.948321,0.567178965,0.291162968],"min":[-0.950598,-0.56934,-0.255579]},{"bufferView":75,"componentType":5126,"count":65532,"type":"VEC3","byteOffset":12},{"bufferView":75,"componentType":5126,"count":65532,"type":"VEC4","byteOffset":24},{"bufferView":76,"componentType":5126,"count":65532,"type":"VEC2"},{"bufferView":76,"componentType":5126,"count":65532,"type":"VEC2","byteOffset":8},{"bufferView":24,"componentType":5125,"count":336279,"type":"SCALAR"},{"bufferView":77,"componentType":5126,"count":65532,"type":"VEC3","max":[0.948656,0.567232966,0.10075],"min":[-0.95033294,-0.569239,-0.292657]},{"bufferView":77,"componentType":5126,"count":65532,"type":"VEC3","byteOffset":12},{"bufferView":77,"componentType":5126,"count":65532,"type":"VEC4","byteOffset":24},{"bufferView":78,"componentType":5126,"count":65532,"type":"VEC2"},{"bufferView":78,"componentType":5126,"count":65532,"type":"VEC2","byteOffset":8},{"bufferView":25,"componentType":5125,"count":327882,"type":"SCALAR"},{"bufferView":79,"componentType":5126,"count":11091,"type":"VEC3","max":[0.716016,0.5655949,0.026440002],"min":[-0.533485,-0.416388,-0.083834]},{"bufferView":79,"componentType":5126,"count":11091,"type":"VEC3","byteOffset":12},{"bufferView":79,"componentType":5126,"count":11091,"type":"VEC4","byteOffset":24},{"bufferView":80,"componentType":5126,"count":11091,"type":"VEC2"},{"bufferView":80,"componentType":5126,"count":11091,"type":"VEC2","byteOffset":8},{"bufferView":26,"componentType":5125,"count":49329,"type":"SCALAR"}],"cameras":[{"type":"perspective","perspective":{"yfov":1.57079637,"zfar":1000,"znear":0.1}}],"images":[{"name":"moosstock_mountain_peak_3024_m.jpg","uri":"moosstock_mountain_peak_3024_m.jpg","mimeType":"image/jpeg"},{"name":"moosstock_mountain_peak_3024_m.jpg","uri":"moosstock_mountain_peak_3024_m_0.jpg","mimeType":"image/jpeg"},{"name":"moosstock_mountain_peak_3024_m.jpg","uri":"moosstock_mountain_peak_3024_m_1.jpg","mimeType":"image/jpeg"},{"name":"model.jpg","uri":"model.jpg","mimeType":"image/jpeg"},{"name":"model.jpg","uri":"model_0.jpg","mimeType":"image/jpeg"},{"name":"model.png","uri":"model.png","mimeType":"image/png"},{"name":"susie_pretty_in_skyward_stretch.png","uri":"susie_pretty_in_skyward_stretch.png","mimeType":"image/png"}],"materials":[{"name":"Material.002","pbrMetallicRoughness":{"baseColorTexture":{"index":0}},"extensions":{"KHR_materials_unlit":{}}},{"name":"Material.001","pbrMetallicRoughness":{"baseColorTexture":{"index":1}},"extensions":{"KHR_materials_unlit":{}}},{"name":"moosstock_Model_8_u1_v1","pbrMetallicRoughness":{"baseColorTexture":{"index":2}},"extensions":{"KHR_materials_unlit":{}}},{"pbrMetallicRoughness":{"baseColorTexture":{"index":3},"metallicRoughnessTexture":{"index":4}},"normalTexture":{"index":5},"doubleSided":true},{"name":"material_0","pbrMetallicRoughness":{},"normalTexture":{"index":6},"doubleSided":true}],"meshes":[{"name":"Skybox.001_Material.002_0","primitives":[{"attributes":{"POSITION":0,"TEXCOORD_0":1},"indices":2,"material":0}]},{"name":"Skybox.001_Material.001_0","primitives":[{"attributes":{"POSITION":3,"TEXCOORD_0":4},"indices":5,"material":1}]},{"name":"Skybox.001_moosstock_Model_8_u1_v1_0","primitives":[{"attributes":{"POSITION":6,"TEXCOORD_0":7},"indices":8,"material":2}]},{"name":"Skybox.001_moosstock_Model_8_u1_v1_0","primitives":[{"attributes":{"POSITION":9,"TEXCOORD_0":10},"indices":11,"material":2}]},{"name":"Skybox.001_moosstock_Model_8_u1_v1_0","primitives":[{"attributes":{"POSITION":12,"TEXCOORD_0":13},"indices":14,"material":2}]},{"name":"Skybox.001_moosstock_Model_8_u1_v1_0","primitives":[{"attributes":{"POSITION":15,"TEXCOORD_0":16},"indices":17,"material":2}]},{"name":"Skybox.001_moosstock_Model_8_u1_v1_0","primitives":[{"attributes":{"POSITION":18,"TEXCOORD_0":19},"indices":20,"material":2}]},{"name":"Skybox.001_moosstock_Model_8_u1_v1_0","primitives":[{"attributes":{"POSITION":21,"TEXCOORD_0":22},"indices":23,"material":2}]},{"name":"Skybox.001_moosstock_Model_8_u1_v1_0","primitives":[{"attributes":{"POSITION":24,"TEXCOORD_0":25},"indices":26,"material":2}]},{"name":"Skybox.001_moosstock_Model_8_u1_v1_0","primitives":[{"attributes":{"POSITION":27,"TEXCOORD_0":28},"indices":29,"material":2}]},{"name":"Skybox.001_moosstock_Model_8_u1_v1_0","primitives":[{"attributes":{"POSITION":30,"TEXCOORD_0":31},"indices":32,"material":2}]},{"name":"Skybox.001_moosstock_Model_8_u1_v1_0","primitives":[{"attributes":{"POSITION":33,"TEXCOORD_0":34},"indices":35,"material":2}]},{"name":"Skybox.001_moosstock_Model_8_u1_v1_0","primitives":[{"attributes":{"POSITION":36,"TEXCOORD_0":37},"indices":38,"material":2}]},{"name":"Skybox.001_moosstock_Model_8_u1_v1_0","primitives":[{"attributes":{"POSITION":39,"TEXCOORD_0":40},"indices":41,"material":2}]},{"name":"Skybox.001_moosstock_Model_8_u1_v1_0","primitives":[{"attributes":{"POSITION":42,"TEXCOORD_0":43},"indices":44,"material":2}]},{"name":"Skybox.001_moosstock_Model_8_u1_v1_0","primitives":[{"attributes":{"POSITION":45,"TEXCOORD_0":46},"indices":47,"material":2}]},{"name":"Skybox.001_moosstock_Model_8_u1_v1_0","primitives":[{"attributes":{"POSITION":48,"TEXCOORD_0":49},"indices":50,"material":2}]},{"name":"Skybox.001_moosstock_Model_8_u1_v1_0","primitives":[{"attributes":{"POSITION":51,"TEXCOORD_0":52},"indices":53,"material":2}]},{"name":"Skybox.001_moosstock_Model_8_u1_v1_0","primitives":[{"attributes":{"POSITION":54,"TEXCOORD_0":55},"indices":56,"material":2}]},{"name":"Skybox.001_moosstock_Model_8_u1_v1_0","primitives":[{"attributes":{"POSITION":57,"TEXCOORD_0":58},"indices":59,"material":2}]},{"name":"Skybox.001_moosstock_Model_8_u1_v1_0","primitives":[{"attributes":{"POSITION":60,"TEXCOORD_0":61},"indices":62,"material":2}]},{"name":"Skybox.001_moosstock_Model_8_u1_v1_0","primitives":[{"attributes":{"POSITION":63,"TEXCOORD_0":64},"indices":65,"material":2}]},{"name":"Skybox.001_moosstock_Model_8_u1_v1_0","primitives":[{"attributes":{"POSITION":66,"TEXCOORD_0":67},"indices":68,"material":2}]},{"primitives":[{"attributes":{"POSITION":69,"NORMAL":70,"TANGENT":71,"TEXCOORD_0":72},"indices":73,"material":3}]},{"name":"Object_0","primitives":[{"attributes":{"POSITION":74,"NORMAL":75,"TANGENT":76,"TEXCOORD_0":77,"TEXCOORD_1":78},"indices":79,"material":4}]},{"name":"Object_1","primitives":[{"attributes":{"POSITION":80,"NORMAL":81,"TANGENT":82,"TEXCOORD_0":83,"TEXCOORD_1":84},"indices":85,"material":4}]},{"name":"Object_2","primitives":[{"attributes":{"POSITION":86,"NORMAL":87,"TANGENT":88,"TEXCOORD_0":89,"TEXCOORD_1":90},"indices":91,"material":4}]}],"scene":0,"scenes":[{"name":"SampleScene","nodes":[0,1,28,52,53,60,61,62]}],"textures":[{"source":0},{"source":1},{"source":2},{"source":3},{"source":4},{"source":5},{"source":6}],"extensions":{"KHR_lights_punctual":{"lights":[{"type":"directional","name":"Directional Light","intensity":2}]}}}